<?xml version="1.0" encoding="UTF-8"?>
<!DOCTYPE svg
PUBLIC "-//W3C//DTD SVG 1.1//EN"
       "http://www.w3.org/Graphics/SVG/1.1/DTD/svg11.dtd">
<svg viewBox="41 -15 1223 715" width="1182px" height="730px" xmlns="http://www.w3.org/2000/svg" version="1.1">
   <line x1="867" y1="396" x2="857" y2="396" style="stroke:#c00;stroke-width:1;"/>
   <line x1="679" y1="36" x2="669" y2="36" style="stroke:#c00;stroke-width:1;"/>
   <line x1="857" y1="396" x2="679" y2="36" style="stroke:#c00;stroke-width:1;"/>
   <line x1="859.5" y1="396" x2="863.03553390593" y2="399.53553390593" style="stroke:#c00;stroke-width:2;"/>
   <line x1="859.5" y1="396" x2="863.03553390593" y2="392.46446609407" style="stroke:#c00;stroke-width:2;"/>
   <line x1="674" y1="36" x2="677.53553390593" y2="39.535533905933" style="stroke:#c00;stroke-width:2;"/>
   <line x1="674" y1="36" x2="677.53553390593" y2="32.464466094067" style="stroke:#c00;stroke-width:2;"/>
   <line x1="975" y1="376" x2="985" y2="376" style="stroke:#b0b;stroke-width:1;"/>
   <line x1="1120" y1="330" x2="1130" y2="330" style="stroke:#b0b;stroke-width:1;"/>
   <line x1="985" y1="376" x2="1120" y2="330" style="stroke:#b0b;stroke-width:1;"/>
   <line x1="982.5" y1="376" x2="978.96446609407" y2="379.53553390593" style="stroke:#b0b;stroke-width:2;"/>
   <line x1="982.5" y1="376" x2="978.96446609407" y2="372.46446609407" style="stroke:#b0b;stroke-width:2;"/>
   <line x1="1125" y1="330" x2="1121.4644660941" y2="333.53553390593" style="stroke:#b0b;stroke-width:2;"/>
   <line x1="1125" y1="330" x2="1121.4644660941" y2="326.46446609407" style="stroke:#b0b;stroke-width:2;"/>
   <line x1="669" y1="116" x2="679" y2="116" style="stroke:#0bf;stroke-width:1;"/>
   <line x1="852" y1="280" x2="862" y2="280" style="stroke:#0bf;stroke-width:1;"/>
   <line x1="679" y1="116" x2="852" y2="280" style="stroke:#0bf;stroke-width:1;"/>
   <line x1="676.5" y1="116" x2="672.96446609407" y2="119.53553390593" style="stroke:#0bf;stroke-width:2;"/>
   <line x1="676.5" y1="116" x2="672.96446609407" y2="112.46446609407" style="stroke:#0bf;stroke-width:2;"/>
   <line x1="857" y1="280" x2="853.46446609407" y2="283.53553390593" style="stroke:#0bf;stroke-width:2;"/>
   <line x1="857" y1="280" x2="853.46446609407" y2="276.46446609407" style="stroke:#0bf;stroke-width:2;"/>
   <line x1="669" y1="96" x2="679" y2="96" style="stroke:#b0b;stroke-width:1;"/>
   <line x1="845" y1="30" x2="855" y2="30" style="stroke:#b0b;stroke-width:1;"/>
   <line x1="679" y1="96" x2="845" y2="30" style="stroke:#b0b;stroke-width:1;"/>
   <line x1="676.5" y1="96" x2="672.96446609407" y2="99.535533905933" style="stroke:#b0b;stroke-width:2;"/>
   <line x1="676.5" y1="96" x2="672.96446609407" y2="92.464466094067" style="stroke:#b0b;stroke-width:2;"/>
   <line x1="850" y1="30" x2="846.46446609407" y2="33.535533905933" style="stroke:#b0b;stroke-width:2;"/>
   <line x1="850" y1="30" x2="846.46446609407" y2="26.464466094067" style="stroke:#b0b;stroke-width:2;"/>
   <line x1="238" y1="690" x2="248" y2="690" style="stroke:#cb0;stroke-width:1;"/>
   <line x1="285" y1="509" x2="275" y2="509" style="stroke:#cb0;stroke-width:1;"/>
   <line x1="248" y1="690" x2="285" y2="509" style="stroke:#cb0;stroke-width:1;"/>
   <line x1="245.5" y1="690" x2="241.96446609407" y2="693.53553390593" style="stroke:#cb0;stroke-width:2;"/>
   <line x1="245.5" y1="690" x2="241.96446609407" y2="686.46446609407" style="stroke:#cb0;stroke-width:2;"/>
   <line x1="280" y1="509" x2="283.53553390593" y2="512.53553390593" style="stroke:#cb0;stroke-width:2;"/>
   <line x1="280" y1="509" x2="283.53553390593" y2="505.46446609407" style="stroke:#cb0;stroke-width:2;"/>
   <line x1="238" y1="670" x2="248" y2="670" style="stroke:#c00;stroke-width:1;"/>
   <line x1="300" y1="250" x2="290" y2="250" style="stroke:#c00;stroke-width:1;"/>
   <line x1="248" y1="670" x2="300" y2="250" style="stroke:#c00;stroke-width:1;"/>
   <line x1="245.5" y1="670" x2="241.96446609407" y2="673.53553390593" style="stroke:#c00;stroke-width:2;"/>
   <line x1="245.5" y1="670" x2="241.96446609407" y2="666.46446609407" style="stroke:#c00;stroke-width:2;"/>
   <line x1="295" y1="250" x2="298.53553390593" y2="253.53553390593" style="stroke:#c00;stroke-width:2;"/>
   <line x1="295" y1="250" x2="298.53553390593" y2="246.46446609407" style="stroke:#c00;stroke-width:2;"/>
   <line x1="290" y1="350" x2="300" y2="350" style="stroke:#0bf;stroke-width:1;"/>
   <line x1="857" y1="376" x2="867" y2="376" style="stroke:#0bf;stroke-width:1;"/>
   <line x1="300" y1="350" x2="857" y2="376" style="stroke:#0bf;stroke-width:1;"/>
   <line x1="297.5" y1="350" x2="293.96446609407" y2="353.53553390593" style="stroke:#0bf;stroke-width:2;"/>
   <line x1="297.5" y1="350" x2="293.96446609407" y2="346.46446609407" style="stroke:#0bf;stroke-width:2;"/>
   <line x1="862" y1="376" x2="858.46446609407" y2="379.53553390593" style="stroke:#0bf;stroke-width:2;"/>
   <line x1="862" y1="376" x2="858.46446609407" y2="372.46446609407" style="stroke:#0bf;stroke-width:2;"/>
   <line x1="290" y1="370" x2="300" y2="370" style="stroke:#b0b;stroke-width:1;"/>
   <line x1="540" y1="499" x2="550" y2="499" style="stroke:#b0b;stroke-width:1;"/>
   <line x1="300" y1="370" x2="540" y2="499" style="stroke:#b0b;stroke-width:1;"/>
   <line x1="297.5" y1="370" x2="293.96446609407" y2="373.53553390593" style="stroke:#b0b;stroke-width:2;"/>
   <line x1="297.5" y1="370" x2="293.96446609407" y2="366.46446609407" style="stroke:#b0b;stroke-width:2;"/>
   <line x1="545" y1="499" x2="541.46446609407" y2="502.53553390593" style="stroke:#b0b;stroke-width:2;"/>
   <line x1="545" y1="499" x2="541.46446609407" y2="495.46446609407" style="stroke:#b0b;stroke-width:2;"/>
   <line x1="290" y1="410" x2="300" y2="410" style="stroke:#333;stroke-width:1;"/>
   <line x1="864" y1="458" x2="874" y2="458" style="stroke:#333;stroke-width:1;"/>
   <line x1="300" y1="410" x2="864" y2="458" style="stroke:#333;stroke-width:1;"/>
   <line x1="297.5" y1="410" x2="293.96446609407" y2="413.53553390593" style="stroke:#333;stroke-width:2;"/>
   <line x1="297.5" y1="410" x2="293.96446609407" y2="406.46446609407" style="stroke:#333;stroke-width:2;"/>
   <line x1="869" y1="458" x2="865.46446609407" y2="461.53553390593" style="stroke:#333;stroke-width:2;"/>
   <line x1="869" y1="458" x2="865.46446609407" y2="454.46446609407" style="stroke:#333;stroke-width:2;"/>
   <line x1="290" y1="390" x2="300" y2="390" style="stroke:#b0b;stroke-width:1;"/>
   <line x1="852" y1="280" x2="862" y2="280" style="stroke:#b0b;stroke-width:1;"/>
   <line x1="300" y1="390" x2="852" y2="280" style="stroke:#b0b;stroke-width:1;"/>
   <line x1="297.5" y1="390" x2="293.96446609407" y2="393.53553390593" style="stroke:#b0b;stroke-width:2;"/>
   <line x1="297.5" y1="390" x2="293.96446609407" y2="386.46446609407" style="stroke:#b0b;stroke-width:2;"/>
   <line x1="857" y1="280" x2="853.46446609407" y2="283.53553390593" style="stroke:#b0b;stroke-width:2;"/>
   <line x1="857" y1="280" x2="853.46446609407" y2="276.46446609407" style="stroke:#b0b;stroke-width:2;"/>
   <line x1="123" y1="96" x2="113" y2="96" style="stroke:#b0b;stroke-width:1;"/>
   <line x1="114" y1="176" x2="124" y2="176" style="stroke:#b0b;stroke-width:1;"/>
   <line x1="113" y1="96" x2="114" y2="176" style="stroke:#b0b;stroke-width:1;"/>
   <line x1="115.5" y1="96" x2="119.03553390593" y2="99.535533905933" style="stroke:#b0b;stroke-width:2;"/>
   <line x1="115.5" y1="96" x2="119.03553390593" y2="92.464466094067" style="stroke:#b0b;stroke-width:2;"/>
   <line x1="119" y1="176" x2="115.46446609407" y2="179.53553390593" style="stroke:#b0b;stroke-width:2;"/>
   <line x1="119" y1="176" x2="115.46446609407" y2="172.46446609407" style="stroke:#b0b;stroke-width:2;"/>
   <line x1="231" y1="76" x2="241" y2="76" style="stroke:#0b0;stroke-width:1;"/>
   <line x1="535" y1="36" x2="545" y2="36" style="stroke:#0b0;stroke-width:1;"/>
   <line x1="241" y1="76" x2="535" y2="36" style="stroke:#0b0;stroke-width:1;"/>
   <line x1="238.5" y1="76" x2="234.96446609407" y2="79.535533905933" style="stroke:#0b0;stroke-width:2;"/>
   <line x1="238.5" y1="76" x2="234.96446609407" y2="72.464466094067" style="stroke:#0b0;stroke-width:2;"/>
   <line x1="540" y1="36" x2="536.46446609407" y2="39.535533905933" style="stroke:#0b0;stroke-width:2;"/>
   <line x1="540" y1="36" x2="536.46446609407" y2="32.464466094067" style="stroke:#0b0;stroke-width:2;"/>
   <line x1="231" y1="116" x2="241" y2="116" style="stroke:#333;stroke-width:1;"/>
   <line x1="852" y1="280" x2="862" y2="280" style="stroke:#333;stroke-width:1;"/>
   <line x1="241" y1="116" x2="852" y2="280" style="stroke:#333;stroke-width:1;"/>
   <line x1="238.5" y1="116" x2="234.96446609407" y2="119.53553390593" style="stroke:#333;stroke-width:2;"/>
   <line x1="238.5" y1="116" x2="234.96446609407" y2="112.46446609407" style="stroke:#333;stroke-width:2;"/>
   <line x1="857" y1="280" x2="853.46446609407" y2="283.53553390593" style="stroke:#333;stroke-width:2;"/>
   <line x1="857" y1="280" x2="853.46446609407" y2="276.46446609407" style="stroke:#333;stroke-width:2;"/>
   <line x1="926" y1="280" x2="936" y2="280" style="stroke:#b0b;stroke-width:1;"/>
   <line x1="1120" y1="330" x2="1130" y2="330" style="stroke:#b0b;stroke-width:1;"/>
   <line x1="936" y1="280" x2="1120" y2="330" style="stroke:#b0b;stroke-width:1;"/>
   <line x1="933.5" y1="280" x2="929.96446609407" y2="283.53553390593" style="stroke:#b0b;stroke-width:2;"/>
   <line x1="933.5" y1="280" x2="929.96446609407" y2="276.46446609407" style="stroke:#b0b;stroke-width:2;"/>
   <line x1="1125" y1="330" x2="1121.4644660941" y2="333.53553390593" style="stroke:#b0b;stroke-width:2;"/>
   <line x1="1125" y1="330" x2="1121.4644660941" y2="326.46446609407" style="stroke:#b0b;stroke-width:2;"/>
   <line x1="114" y1="569" x2="104" y2="569" style="stroke:#bbb;stroke-width:1;"/>
   <line x1="114" y1="176" x2="124" y2="176" style="stroke:#bbb;stroke-width:1;"/>
   <line x1="104" y1="569" x2="114" y2="176" style="stroke:#bbb;stroke-width:1;"/>
   <line x1="106.5" y1="569" x2="110.03553390593" y2="572.53553390593" style="stroke:#bbb;stroke-width:2;"/>
   <line x1="106.5" y1="569" x2="110.03553390593" y2="565.46446609407" style="stroke:#bbb;stroke-width:2;"/>
   <line x1="119" y1="176" x2="115.46446609407" y2="179.53553390593" style="stroke:#bbb;stroke-width:2;"/>
   <line x1="119" y1="176" x2="115.46446609407" y2="172.46446609407" style="stroke:#bbb;stroke-width:2;"/>
   <line x1="964" y1="458" x2="974" y2="458" style="stroke:#333;stroke-width:1;"/>
   <line x1="1120" y1="330" x2="1130" y2="330" style="stroke:#333;stroke-width:1;"/>
   <line x1="974" y1="458" x2="1120" y2="330" style="stroke:#333;stroke-width:1;"/>
   <line x1="971.5" y1="458" x2="967.96446609407" y2="461.53553390593" style="stroke:#333;stroke-width:2;"/>
   <line x1="971.5" y1="458" x2="967.96446609407" y2="454.46446609407" style="stroke:#333;stroke-width:2;"/>
   <line x1="1125" y1="330" x2="1121.4644660941" y2="333.53553390593" style="stroke:#333;stroke-width:2;"/>
   <line x1="1125" y1="330" x2="1121.4644660941" y2="326.46446609407" style="stroke:#333;stroke-width:2;"/>
   <line x1="874" y1="478" x2="864" y2="478" style="stroke:#0b0;stroke-width:1;"/>
   <line x1="634" y1="499" x2="624" y2="499" style="stroke:#0b0;stroke-width:1;"/>
   <line x1="864" y1="478" x2="634" y2="499" style="stroke:#0b0;stroke-width:1;"/>
   <line x1="866.5" y1="478" x2="870.03553390593" y2="481.53553390593" style="stroke:#0b0;stroke-width:2;"/>
   <line x1="866.5" y1="478" x2="870.03553390593" y2="474.46446609407" style="stroke:#0b0;stroke-width:2;"/>
   <line x1="629" y1="499" x2="632.53553390593" y2="502.53553390593" style="stroke:#0b0;stroke-width:2;"/>
   <line x1="629" y1="499" x2="632.53553390593" y2="495.46446609407" style="stroke:#0b0;stroke-width:2;"/>
   <rect width="108" height="20" x="867" y="326" style="fill:#007;stroke:black;"/>
   <text width="108" height="20" x="872" y="340" style="fill:#fff;" font-family="Arial" font-size="16px"> alumno</text>
   <rect width="108" height="20" x="867" y="346" style="fill:none;stroke:black;"/>
   <text width="108" height="20" x="872" y="360" style="fill:black;" font-family="Arial" font-size="16px">mayoria_edad</text>
   <rect width="108" height="20" x="867" y="366" style="fill:#aea;stroke:black;"/>
   <text width="108" height="20" x="872" y="380" style="fill:black;" font-family="Arial" font-size="16px">id</text>
   <rect width="108" height="20" x="867" y="386" style="fill:none;stroke:black;"/>
   <text width="108" height="20" x="872" y="400" style="fill:black;" font-family="Arial" font-size="16px">id_curso</text>
   <rect width="43" height="20" x="855" y="0" style="fill:#007;stroke:black;"/>
   <text width="43" height="20" x="860" y="14" style="fill:#fff;" font-family="Arial" font-size="16px"> ciclo</text>
   <rect width="43" height="20" x="855" y="20" style="fill:#aea;stroke:black;"/>
   <text width="43" height="20" x="860" y="34" style="fill:black;" font-family="Arial" font-size="16px">id</text>
   <rect width="43" height="20" x="855" y="40" style="fill:none;stroke:black;"/>
   <text width="43" height="20" x="860" y="54" style="fill:black;" font-family="Arial" font-size="16px">tipo</text>
   <rect width="124" height="20" x="545" y="6" style="fill:#007;stroke:black;"/>
   <text width="124" height="20" x="550" y="20" style="fill:#fff;" font-family="Arial" font-size="16px"> curso</text>
   <rect width="124" height="20" x="545" y="26" style="fill:none;stroke:black;"/>
   <text width="124" height="20" x="550" y="40" style="fill:black;" font-family="Arial" font-size="16px">codigo</text>
   <rect width="124" height="20" x="545" y="46" style="fill:none;stroke:black;"/>
   <text width="124" height="20" x="550" y="60" style="fill:black;" font-family="Arial" font-size="16px">nombre</text>
   <rect width="124" height="20" x="545" y="66" style="fill:none;stroke:black;"/>
   <text width="124" height="20" x="550" y="80" style="fill:black;" font-family="Arial" font-size="16px">year_academico</text>
   <rect width="124" height="20" x="545" y="86" style="fill:none;stroke:black;"/>
   <text width="124" height="20" x="550" y="100" style="fill:black;" font-family="Arial" font-size="16px">ciclo_id</text>
   <rect width="124" height="20" x="545" y="106" style="fill:none;stroke:black;"/>
   <text width="124" height="20" x="550" y="120" style="fill:black;" font-family="Arial" font-size="16px">coordinador_id</text>
   <rect width="74" height="20" x="550" y="469" style="fill:#007;stroke:black;"/>
   <text width="74" height="20" x="555" y="483" style="fill:#fff;" font-family="Arial" font-size="16px"> empresa</text>
   <rect width="74" height="20" x="550" y="489" style="fill:#aea;stroke:black;"/>
   <text width="74" height="20" x="555" y="503" style="fill:black;" font-family="Arial" font-size="16px">id</text>
   <rect width="74" height="20" x="550" y="509" style="fill:none;stroke:black;"/>
   <text width="74" height="20" x="555" y="523" style="fill:black;" font-family="Arial" font-size="16px">direccion</text>
   <rect width="74" height="20" x="550" y="529" style="fill:none;stroke:black;"/>
   <text width="74" height="20" x="555" y="543" style="fill:black;" font-family="Arial" font-size="16px">nombre</text>
   <rect width="182" height="20" x="56" y="600" style="fill:#007;stroke:black;"/>
   <text width="182" height="20" x="61" y="614" style="fill:#fff;" font-family="Arial" font-size="16px"> evaluacion_ra</text>
   <rect width="182" height="20" x="56" y="620" style="fill:#aea;stroke:black;"/>
   <text width="182" height="20" x="61" y="634" style="fill:black;" font-family="Arial" font-size="16px">id</text>
   <rect width="182" height="20" x="56" y="640" style="fill:none;stroke:black;"/>
   <text width="182" height="20" x="61" y="654" style="fill:black;" font-family="Arial" font-size="16px">estado</text>
   <rect width="182" height="20" x="56" y="660" style="fill:none;stroke:black;"/>
   <text width="182" height="20" x="61" y="674" style="fill:black;" font-family="Arial" font-size="16px">formacion_id</text>
   <rect width="182" height="20" x="56" y="680" style="fill:none;stroke:black;"/>
   <text width="182" height="20" x="61" y="694" style="fill:black;" font-family="Arial" font-size="16px">resultado_aprendizaje_id</text>
   <rect width="148" height="20" x="142" y="220" style="fill:#007;stroke:black;"/>
   <text width="148" height="20" x="147" y="234" style="fill:#fff;" font-family="Arial" font-size="16px"> formacion_empresa</text>
   <rect width="148" height="20" x="142" y="240" style="fill:#aea;stroke:black;"/>
   <text width="148" height="20" x="147" y="254" style="fill:black;" font-family="Arial" font-size="16px">id</text>
   <rect width="148" height="20" x="142" y="260" style="fill:none;stroke:black;"/>
   <text width="148" height="20" x="147" y="274" style="fill:black;" font-family="Arial" font-size="16px">estado</text>
   <rect width="148" height="20" x="142" y="280" style="fill:none;stroke:black;"/>
   <text width="148" height="20" x="147" y="294" style="fill:black;" font-family="Arial" font-size="16px">fecha_fin</text>
   <rect width="148" height="20" x="142" y="300" style="fill:none;stroke:black;"/>
   <text width="148" height="20" x="147" y="314" style="fill:black;" font-family="Arial" font-size="16px">fecha_ini</text>
   <rect width="148" height="20" x="142" y="320" style="fill:none;stroke:black;"/>
   <text width="148" height="20" x="147" y="334" style="fill:black;" font-family="Arial" font-size="16px">periodo</text>
   <rect width="148" height="20" x="142" y="340" style="fill:none;stroke:black;"/>
   <text width="148" height="20" x="147" y="354" style="fill:black;" font-family="Arial" font-size="16px">alumno_id</text>
   <rect width="148" height="20" x="142" y="360" style="fill:none;stroke:black;"/>
   <text width="148" height="20" x="147" y="374" style="fill:black;" font-family="Arial" font-size="16px">empresa_id</text>
   <rect width="148" height="20" x="142" y="380" style="fill:none;stroke:black;"/>
   <text width="148" height="20" x="147" y="394" style="fill:black;" font-family="Arial" font-size="16px">tutor_centro_id</text>
   <rect width="148" height="20" x="142" y="400" style="fill:none;stroke:black;"/>
   <text width="148" height="20" x="147" y="414" style="fill:black;" font-family="Arial" font-size="16px">tutor_empresa_id</text>
   <rect width="64" height="20" x="124" y="146" style="fill:#007;stroke:black;"/>
   <text width="64" height="20" x="129" y="160" style="fill:#fff;" font-family="Arial" font-size="16px"> modulo</text>
   <rect width="64" height="20" x="124" y="166" style="fill:#aea;stroke:black;"/>
   <text width="64" height="20" x="129" y="180" style="fill:black;" font-family="Arial" font-size="16px">id</text>
   <rect width="64" height="20" x="124" y="186" style="fill:none;stroke:black;"/>
   <text width="64" height="20" x="129" y="200" style="fill:black;" font-family="Arial" font-size="16px">nombre</text>
   <rect width="108" height="20" x="123" y="26" style="fill:#007;stroke:black;"/>
   <text width="108" height="20" x="128" y="40" style="fill:#fff;" font-family="Arial" font-size="16px"> modulo_curso</text>
   <rect width="108" height="20" x="123" y="46" style="fill:#aea;stroke:black;"/>
   <text width="108" height="20" x="128" y="60" style="fill:black;" font-family="Arial" font-size="16px">id</text>
   <rect width="108" height="20" x="123" y="66" style="fill:none;stroke:black;"/>
   <text width="108" height="20" x="128" y="80" style="fill:black;" font-family="Arial" font-size="16px">curso_codigo</text>
   <rect width="108" height="20" x="123" y="86" style="fill:none;stroke:black;"/>
   <text width="108" height="20" x="128" y="100" style="fill:black;" font-family="Arial" font-size="16px">modulo_id</text>
   <rect width="108" height="20" x="123" y="106" style="fill:none;stroke:black;"/>
   <text width="108" height="20" x="128" y="120" style="fill:black;" font-family="Arial" font-size="16px">profesor_id</text>
   <rect width="78" height="20" x="1130" y="300" style="fill:#007;stroke:black;"/>
   <text width="78" height="20" x="1135" y="314" style="fill:#fff;" font-family="Arial" font-size="16px"> persona</text>
   <rect width="78" height="20" x="1130" y="320" style="fill:#aea;stroke:black;"/>
   <text width="78" height="20" x="1135" y="334" style="fill:black;" font-family="Arial" font-size="16px">id</text>
   <rect width="78" height="20" x="1130" y="340" style="fill:none;stroke:black;"/>
   <text width="78" height="20" x="1135" y="354" style="fill:black;" font-family="Arial" font-size="16px">email</text>
   <rect width="78" height="20" x="1130" y="360" style="fill:none;stroke:black;"/>
   <text width="78" height="20" x="1135" y="374" style="fill:black;" font-family="Arial" font-size="16px">nombre</text>
   <rect width="78" height="20" x="1130" y="380" style="fill:none;stroke:black;"/>
   <text width="78" height="20" x="1135" y="394" style="fill:black;" font-family="Arial" font-size="16px">password</text>
   <rect width="78" height="20" x="1130" y="400" style="fill:none;stroke:black;"/>
   <text width="78" height="20" x="1135" y="414" style="fill:black;" font-family="Arial" font-size="16px">perfil</text>
   <rect width="78" height="20" x="1130" y="420" style="fill:none;stroke:black;"/>
   <text width="78" height="20" x="1135" y="434" style="fill:black;" font-family="Arial" font-size="16px">user</text>
   <rect width="64" height="20" x="862" y="250" style="fill:#007;stroke:black;"/>
   <text width="64" height="20" x="867" y="264" style="fill:#fff;" font-family="Arial" font-size="16px"> profesor</text>
   <rect width="64" height="20" x="862" y="270" style="fill:#aea;stroke:black;"/>
   <text width="64" height="20" x="867" y="284" style="fill:black;" font-family="Arial" font-size="16px">id</text>
   <rect width="161" height="20" x="114" y="479" style="fill:#007;stroke:black;"/>
   <text width="161" height="20" x="119" y="493" style="fill:#fff;" font-family="Arial" font-size="16px"> resultado_aprendizaje</text>
   <rect width="161" height="20" x="114" y="499" style="fill:#aea;stroke:black;"/>
   <text width="161" height="20" x="119" y="513" style="fill:black;" font-family="Arial" font-size="16px">id</text>
   <rect width="161" height="20" x="114" y="519" style="fill:none;stroke:black;"/>
   <text width="161" height="20" x="119" y="533" style="fill:black;" font-family="Arial" font-size="16px">codigo</text>
   <rect width="161" height="20" x="114" y="539" style="fill:none;stroke:black;"/>
   <text width="161" height="20" x="119" y="553" style="fill:black;" font-family="Arial" font-size="16px">descripcion</text>
   <rect width="161" height="20" x="114" y="559" style="fill:none;stroke:black;"/>
   <text width="161" height="20" x="119" y="573" style="fill:black;" font-family="Arial" font-size="16px">modulo_id</text>
   <rect width="90" height="20" x="874" y="428" style="fill:#007;stroke:black;"/>
   <text width="90" height="20" x="879" y="442" style="fill:#fff;" font-family="Arial" font-size="16px"> tutor</text>
   <rect width="90" height="20" x="874" y="448" style="fill:#aea;stroke:black;"/>
   <text width="90" height="20" x="879" y="462" style="fill:black;" font-family="Arial" font-size="16px">id</text>
   <rect width="90" height="20" x="874" y="468" style="fill:none;stroke:black;"/>
   <text width="90" height="20" x="879" y="482" style="fill:black;" font-family="Arial" font-size="16px">empresa_id</text>
</svg>
